<?xml version="1.0" encoding="iso-8859-1"?>
<!-- Generator: Adobe Illustrator 16.0.0, SVG Export Plug-In . SVG Version: 6.00 Build 0)  -->
<!DOCTYPE svg PUBLIC "-//W3C//DTD SVG 1.1//EN" "http://www.w3.org/Graphics/SVG/1.1/DTD/svg11.dtd">
<svg version="1.1" id="Capa_1" fill="#ffffff" xmlns="http://www.w3.org/2000/svg" xmlns:xlink="http://www.w3.org/1999/xlink" x="0px" y="0px"
	 width="221.332px" height="221.332px" viewBox="0 0 221.332 221.332" style="enable-background:new 0 0 221.332 221.332;"
	 xml:space="preserve">
<g>
	<path d="M221.012,125.608c-0.768-4.293-3.173-8.038-6.753-10.528s-7.916-3.429-12.228-2.673c-0.84,0.152-1.425,0.962-1.254,1.814
		c0.146,0.846,0.962,1.382,1.809,1.267c3.495-0.634,6.984,0.134,9.895,2.161c2.898,2.016,4.835,5.042,5.462,8.52
		c0.816,4.529-0.249,9.255-2.929,13.006c-1.619,2.277-3.77,3.977-6.168,5.151c5.486-4.542,6.375-12.653,1.937-18.261
		c-3.727-4.635-10.528-5.414-15.187-1.711c-3.849,3.08-4.488,8.701-1.419,12.573c1.218,1.56,2.996,2.546,4.993,2.771
		c1.973,0.22,3.945-0.328,5.505-1.583c0.371-0.292,0.523-0.712,0.542-1.157c0.268-0.475,0.462-0.998,0.462-1.589
		c0-1.833-1.479-3.307-3.312-3.307c-1.832,0-3.3,1.474-3.3,3.307c0,0.396,0.098,0.786,0.226,1.151
		c-1.054-0.177-2.004-0.694-2.68-1.535c-1.997-2.515-1.583-6.187,0.926-8.184c3.3-2.637,8.153-2.082,10.784,1.224
		c3.422,4.306,2.722,10.602-1.602,14.023c-5.535,4.396-12.015,3.604-18.237-2.216c-0.268-0.244-0.627-0.329-0.95-0.359
		c-2.983-2.904-6.077-6.674-9.651-11.186c-1.626-2.034-3.172-4.227-4.731-6.4c0.524,0.092,1.06,0.213,1.614,0.213
		c1.656,0,3.318-0.45,4.963-1.363c4.152-2.339,5.626-7.624,3.288-11.777c-0.938-1.68-2.491-2.898-4.354-3.416
		c-1.869-0.524-3.806-0.286-5.486,0.658c-2.923,1.644-3.97,5.364-2.325,8.3c1.406,2.484,4.561,3.392,7.075,1.973
		c0.615-0.341,0.773-1.011,0.651-1.656c0.037-0.109,0.128-0.146,0.146-0.262c0.164-1.114-0.604-2.149-1.705-2.308
		c-1.072-0.158-2.059,0.584-2.247,1.656c-0.481-0.152-0.926-0.463-1.188-0.926c-0.798-1.438-0.292-3.252,1.163-4.056
		c0.95-0.536,2.046-0.673,3.105-0.377c1.06,0.298,1.942,0.987,2.466,1.949c1.492,2.654,0.566,6.028-2.106,7.52
		c-4.47,2.516-7.935-0.389-9.761-2.63c-7.666-10.318-16.404-19.61-31.664-19.61c-0.036,0-0.073,0-0.121,0
		c-7.551,0.027-14.401,3.045-19.27,8.507c-2.207,2.469-3.797,5.416-5.026,8.564v-5.946c0.243-0.192,0.487-0.362,0.673-0.637
		l3.872-5.717c0.326-0.475,0.362-1.09,0.095-1.602s-0.804-0.831-1.386-0.831h-3.778v-1.793c0-0.058,0.064-0.094,0.07-0.146
		c0.131,0.006,0.198,0.006,0.359,0.006c2.944,0,10.264-0.506,14.903-5.219c5.809-5.879,4.993-15.78,4.957-16.203L132,73.439
		l-1.314-0.104c0.006,0.006-10.261-0.773-16.134,5.185c-1.077,1.105-1.885,2.36-2.551,3.657c0.326-8.288,6.665-14.979,14.793-15.884
		c0.646,1.068,1.735,1.814,3.057,1.814c1.979,0,3.605-1.613,3.605-3.602c0-1.991-1.626-3.605-3.605-3.605
		c-1.528,0-2.819,0.959-3.337,2.308c-6.192,0.66-11.526,4.131-14.662,9.176V59.541c1.19-0.585,2.046-1.787,2.046-3.215
		c0-1.991-1.617-3.605-3.605-3.605c-1.988,0-3.589,1.614-3.589,3.605c0,1.428,0.84,2.63,2.03,3.215V72.38
		c-3.142-5.045-8.46-8.51-14.671-9.176c-0.518-1.349-1.809-2.308-3.328-2.308c-1.998,0-3.605,1.614-3.605,3.602
		c0,1.991,1.607,3.605,3.605,3.605c1.315,0,2.423-0.749,3.047-1.814c8.132,0.904,14.486,7.596,14.796,15.883
		c-0.66-1.297-1.464-2.551-2.551-3.657c-5.867-5.958-16.137-5.188-16.13-5.188l-1.321,0.106l-0.125,1.318
		c-0.037,0.417-0.862,10.318,4.944,16.203c4.64,4.713,11.971,5.218,14.91,5.218c0.143,0,0.231,0,0.368-0.006
		c0,0.058,0.049,0.095,0.061,0.146v1.793h-3.047c-0.594,0-1.117,0.32-1.385,0.831c-0.28,0.512-0.244,1.127,0.094,1.602l3.873,5.718
		c0.28,0.405,0.627,0.713,0.99,0.941v6.415c-1.203-3.452-2.95-6.664-5.331-9.344c-4.868-5.462-11.722-8.482-19.272-8.506
		c-0.046,0-0.083,0-0.119,0c-15.244,0-24.012,9.28-31.664,19.604c-1.827,2.217-5.325,5.146-9.758,2.637
		c-2.661-1.492-3.604-4.865-2.113-7.526c0.542-0.956,1.428-1.644,2.469-1.942c1.047-0.301,2.155-0.164,3.118,0.378
		c1.428,0.804,1.945,2.618,1.147,4.056c-0.262,0.462-0.706,0.772-1.187,0.913c-0.186-1.06-1.172-1.79-2.244-1.645
		c-1.129,0.158-1.875,1.193-1.708,2.308c0.019,0.116,0.131,0.152,0.149,0.262c-0.131,0.646,0.052,1.315,0.648,1.65
		c2.494,1.432,5.669,0.512,7.079-1.979c1.644-2.923,0.597-6.644-2.326-8.281c-1.689-0.95-3.617-1.188-5.486-0.664
		c-1.866,0.518-3.419,1.735-4.354,3.416c-2.338,4.152-0.868,9.426,3.291,11.765c1.641,0.913,3.3,1.376,4.959,1.376
		c0.554,0,1.09-0.134,1.614-0.213c-1.559,2.186-3.105,4.365-4.731,6.399c-3.574,4.512-6.643,8.269-9.642,11.18
		c-0.347,0.024-0.691,0.116-0.959,0.365c-6.235,5.833-12.702,6.625-18.237,2.204c-4.293-3.422-5.027-9.718-1.604-14.011
		c2.637-3.307,7.489-3.86,10.787-1.23c2.509,1.991,2.938,5.675,0.923,8.178c-0.667,0.853-1.626,1.37-2.679,1.547
		c0.131-0.365,0.228-0.743,0.228-1.151c0-1.832-1.47-3.312-3.303-3.312s-3.303,1.48-3.303,3.312c0,0.585,0.186,1.109,0.454,1.59
		c0.018,0.433,0.173,0.865,0.542,1.157c1.559,1.242,3.528,1.79,5.507,1.571c1.976-0.214,3.766-1.2,4.993-2.759
		c3.069-3.86,2.445-9.481-1.428-12.574c-4.658-3.702-11.46-2.923-15.177,1.717c-4.445,5.59-3.553,13.713,1.933,18.243
		c-2.411-1.169-4.545-2.874-6.165-5.151c-2.682-3.738-3.748-8.464-2.932-13.007c0.63-3.477,2.563-6.503,5.462-8.506
		c2.914-2.016,6.403-2.789,9.895-2.174c0.825,0.128,1.666-0.408,1.809-1.254c0.143-0.841-0.411-1.663-1.251-1.815
		c-4.29-0.755-8.649,0.183-12.23,2.673c-3.578,2.491-5.986,6.236-6.744,10.529c-0.962,5.34,0.292,10.947,3.446,15.368
		c3.093,4.306,7.639,7.131,12.79,7.916c13.007,1.974,20.533-7.593,29.323-18.675c0.052-0.062,0.094-0.129,0.131-0.177
		c0.006-0.013,0.018,0,0.033-0.013c1.894-2.106,5.754-5.188,10.236-2.204c2.533,1.692,3.236,5.115,1.571,7.636
		c-1.257,1.888-3.815,2.387-5.696,1.157c-0.664-0.444-1.124-1.133-1.273-1.912c-0.149-0.768,0-1.559,0.429-2.204
		c0.351-0.512,0.874-0.779,1.428-0.865c0.18,1.012,1.065,1.766,2.113,1.688c1.129-0.092,1.945-1.072,1.86-2.199
		c-0.019-0.151-0.158-0.243-0.207-0.389c0.037-0.543-0.119-1.084-0.606-1.4c-2.381-1.571-5.593-0.932-7.164,1.424
		c-0.91,1.353-1.214,2.972-0.91,4.555c0.332,1.602,1.242,2.979,2.606,3.885c1.224,0.816,2.612,1.194,3.998,1.194
		c2.338,0,4.64-1.133,6.043-3.222c2.612-3.964,1.507-9.322-2.438-11.953c-2.326-1.54-4.808-2.064-7.271-1.595
		c0.329-0.451,0.648-0.865,0.965-1.327c1.242-1.742,2.502-3.502,3.791-5.213c0.045-0.061,0.1-0.104,0.131-0.146
		c0.015-0.018,0-0.036,0.015-0.049c7.146-9.547,15.274-18.008,28.887-18.008c0.037,0,0.076,0,0.113,0
		c6.646,0.018,12.663,2.676,16.964,7.462c4.808,5.37,7.079,12.97,6.211,20.849c-0.636,5.749-3.458,10.925-7.961,14.541
		c-4.177,3.361-9.329,4.933-14.629,4.677c-3.197-0.548-5.778-2.016-7.414-4.335c-1.976-2.801-2.63-6.723-1.775-10.766
		c0.56-2.606,2.088-4.835,4.32-6.303c2.219-1.443,4.875-1.942,7.514-1.395c1.994,0.414,3.727,1.607,4.838,3.325
		c1.123,1.711,1.477,3.769,1.06,5.772c-0.317,1.51-1.185,2.801-2.488,3.659c-1.315,0.858-2.886,1.139-4.396,0.822
		c-1.035-0.22-1.909-0.828-2.524-1.669c1.541-0.292,2.725-1.595,2.691-3.227c-0.024-1.827-1.513-3.288-3.34-3.264
		c-1.172,0.023-2.134,0.657-2.712,1.57c-0.226,0.207-0.445,0.451-0.518,0.779c-0.064,0.293,0.012,0.572-0.012,0.859
		c-0.006,0.055-0.04,0.104-0.04,0.14c0,0.049,0.033,0.085,0.033,0.128c-0.106,1.577,0.174,3.136,1.054,4.488
		c1.083,1.686,2.761,2.831,4.725,3.251c2.362,0.487,4.752,0.049,6.747-1.261c1.994-1.303,3.368-3.3,3.849-5.626
		c0.603-2.808,0.073-5.681-1.498-8.11c-1.571-2.418-3.998-4.074-6.82-4.684c-3.413-0.718-6.923-0.072-9.858,1.834
		c-2.944,1.918-4.944,4.84-5.663,8.256c-0.858,4.025-0.387,7.935,1.172,11.18c-0.584-0.541-1.172-1.077-1.69-1.698
		c-2.85-3.556-4.146-7.989-3.653-12.525c0.792-7.301,7.401-12.599,14.678-11.789c0.917,0.073,1.635-0.529,1.708-1.394
		c0.106-0.859-0.523-1.627-1.376-1.705c-9.067-0.95-17.135,5.547-18.115,14.547c-0.584,5.34,0.95,10.601,4.308,14.803
		c3.374,4.195,8.181,6.832,13.533,7.404c0.542,0.061,1.078,0.061,1.614,0.085c0.094,0.024,0.137,0.055,0.237,0.062
		c0.067,0.012,0.131,0.012,0.192,0.012c0.045,0,0.07-0.03,0.1-0.03c0.195,0,0.387,0.03,0.6,0.03c5.611,0,11.042-1.912,15.476-5.469
		c3.434-2.764,5.916-6.356,7.474-10.352v9.523c-6.36,0.707-11.311,6.047-11.311,12.574c0,7.009,5.7,12.709,12.708,12.709
		c7.009,0,12.705-5.7,12.705-12.709c0-6.411-4.804-11.679-10.979-12.531v-8.793c1.571,3.685,3.937,6.997,7.137,9.578
		c4.469,3.557,9.864,5.469,15.484,5.469c0.183,0,0.39-0.03,0.591-0.03c0.03,0,0.073,0.03,0.109,0.03c0.061,0,0.128,0,0.183-0.012
		c0.098-0.007,0.152-0.037,0.237-0.062c0.536-0.024,1.09-0.024,1.626-0.085c5.341-0.585,10.157-3.222,13.53-7.404
		c3.361-4.202,4.884-9.463,4.299-14.797c-0.975-9.006-9.061-15.497-18.097-14.553c-0.871,0.091-1.474,0.858-1.395,1.705
		c0.091,0.864,0.755,1.461,1.705,1.394c7.246-0.821,13.896,4.488,14.675,11.789c0.493,4.536-0.804,8.97-3.653,12.525
		c-0.506,0.633-1.097,1.169-1.675,1.698c1.547-3.245,2.034-7.143,1.169-11.18c-0.719-3.416-2.728-6.363-5.663-8.256
		c-2.929-1.906-6.411-2.552-9.846-1.834c-2.825,0.609-5.261,2.266-6.832,4.684c-1.571,2.43-2.101,5.303-1.504,8.104
		c0.487,2.332,1.869,4.329,3.854,5.632c2.003,1.31,4.427,1.736,6.746,1.261c1.955-0.414,3.642-1.571,4.731-3.251
		c0.883-1.353,1.163-2.911,1.054-4.488c0-0.043,0.024-0.079,0.024-0.128s-0.024-0.098-0.024-0.14
		c-0.03-0.287,0.049-0.566-0.019-0.859c-0.049-0.188-0.213-0.304-0.322-0.463c-0.53-1.096-1.607-1.863-2.904-1.887
		c-1.827-0.024-3.325,1.437-3.35,3.264c-0.024,1.632,1.163,2.935,2.697,3.227c-0.639,0.841-1.485,1.438-2.521,1.669
		c-1.522,0.323-3.081,0.036-4.396-0.822c-1.303-0.858-2.198-2.149-2.503-3.665c-0.414-1.998-0.049-4.044,1.066-5.767
		c1.139-1.718,2.843-2.911,4.853-3.325c2.631-0.572,5.279-0.061,7.508,1.395s3.764,3.696,4.312,6.303
		c0.853,4.031,0.201,7.952-1.778,10.766c-1.65,2.319-4.22,3.787-7.41,4.335c-5.304,0.256-10.455-1.315-14.62-4.677
		c-4.521-3.616-7.355-8.792-7.968-14.541c-0.862-7.885,1.416-15.472,6.208-20.849c4.293-4.792,10.297-7.444,16.964-7.462
		c0.049,0,0.073,0,0.11,0c13.608,0,21.762,8.461,28.898,18.008c0.013,0.013,0,0.031,0.013,0.049
		c0.042,0.062,0.104,0.098,0.134,0.146c1.278,1.711,2.533,3.471,3.781,5.213c0.322,0.462,0.651,0.876,0.975,1.327
		c-2.467-0.463-4.957,0.055-7.265,1.595c-3.964,2.631-5.066,7.989-2.441,11.959c1.4,2.083,3.689,3.216,6.028,3.216
		c1.388,0,2.758-0.384,4.006-1.194c1.358-0.913,2.284-2.283,2.601-3.885c0.316-1.595,0-3.215-0.907-4.555
		c-1.596-2.362-4.811-2.989-7.173-1.424c-0.487,0.316-0.634,0.857-0.597,1.4c-0.049,0.146-0.189,0.237-0.201,0.401
		c-0.104,1.114,0.712,2.095,1.845,2.187c1.048,0.091,1.942-0.664,2.113-1.688c0.56,0.086,1.084,0.354,1.431,0.871
		c0.426,0.651,0.597,1.431,0.426,2.211c-0.146,0.779-0.608,1.442-1.254,1.893c-1.906,1.261-4.457,0.737-5.699-1.139
		c-1.681-2.521-0.975-5.955,1.559-7.647c4.494-2.983,8.342,0.109,10.242,2.204c0.006,0.013,0.018,0.013,0.024,0.013
		c0.049,0.066,0.104,0.128,0.134,0.177c8.793,11.082,16.355,20.66,29.325,18.675c5.14-0.785,9.694-3.599,12.775-7.916
		C220.713,136.544,221.986,130.954,221.012,125.608z M116.766,80.71c3.641-3.684,9.535-4.238,12.306-4.29
		c-0.006,2.688-0.463,8.65-4.104,12.346c-3.636,3.688-9.523,4.241-12.301,4.29C112.676,90.37,113.136,84.409,116.766,80.71z
		 M95.633,88.772c-3.629-3.684-4.077-9.658-4.089-12.346c2.743,0.052,8.646,0.606,12.288,4.29c3.629,3.688,4.092,9.661,4.104,12.346
		C105.175,93.013,99.268,92.459,95.633,88.772z M109.264,147.151v17.556c-1.315-1.395-2.582-4.5-2.582-8.78
		C106.682,151.646,107.948,148.516,109.264,147.151z M112.381,164.214v-16.575c1.172,1.534,2.247,4.372,2.247,8.288
		C114.628,159.842,113.565,162.679,112.381,164.214z M101.07,155.927c0-3.143,1.541-5.9,3.885-7.667
		c-0.874,2.113-1.397,4.726-1.397,7.667c0,2.94,0.524,5.559,1.397,7.666C102.611,161.839,101.07,159.074,101.07,155.927z
		 M120.248,155.927c0,3.147-1.54,5.912-3.882,7.666c0.874-2.107,1.397-4.726,1.397-7.666c0-2.941-0.523-5.554-1.397-7.667
		C118.708,150.026,120.248,152.784,120.248,155.927z"/>
</g>
<g>
</g>
<g>
</g>
<g>
</g>
<g>
</g>
<g>
</g>
<g>
</g>
<g>
</g>
<g>
</g>
<g>
</g>
<g>
</g>
<g>
</g>
<g>
</g>
<g>
</g>
<g>
</g>
<g>
</g>
</svg>
